<svg xmlns="http://www.w3.org/2000/svg" viewBox="0 0 468.14 63.92"><defs><style>.cls-1{fill:#1a1a1a;}.cls-2{fill:#fa2414;stroke:#fa2414;}.cls-2,.cls-3,.cls-5,.cls-6{stroke-linecap:round;}.cls-2,.cls-3,.cls-4,.cls-5,.cls-6,.cls-7{stroke-miterlimit:10;stroke-width:5px;}.cls-3,.cls-4,.cls-5,.cls-6,.cls-7{fill:none;}.cls-3,.cls-4{stroke:#fbb400;}.cls-5{stroke:#00a63e;}.cls-6,.cls-7{stroke:#227bf6;}</style></defs><title>Asset 5header</title><g id="Layer_2" data-name="Layer 2"><g id="Layer_1-2" data-name="Layer 1"><path class="cls-1" d="M0,15.91H8.36v4h.55a10.07,10.07,0,0,1,3.81-3.6,12.54,12.54,0,0,1,6.39-1.5,14.44,14.44,0,0,1,6.08,1.33,16.19,16.19,0,0,1,5.1,3.67,17.62,17.62,0,0,1,3.51,5.61,19.29,19.29,0,0,1,1.29,7.14,19.21,19.21,0,0,1-1.29,7.14,17.4,17.4,0,0,1-3.51,5.61A16,16,0,0,1,25.19,49a14.29,14.29,0,0,1-6.08,1.33,12.54,12.54,0,0,1-6.39-1.5,9.92,9.92,0,0,1-3.81-3.6H8.36L8.91,50V63.92H0ZM17.27,42.09a8.42,8.42,0,0,0,3.37-.68,9,9,0,0,0,2.82-1.9,9.27,9.27,0,0,0,2-3,10.75,10.75,0,0,0,0-7.89,9.16,9.16,0,0,0-2-3,9,9,0,0,0-2.82-1.91,8.6,8.6,0,0,0-3.37-.68,8.86,8.86,0,0,0-3.36.65,8.37,8.37,0,0,0-2.83,1.87,9.32,9.32,0,0,0-2,3,10.2,10.2,0,0,0-.75,4,10.13,10.13,0,0,0,.75,4,9.48,9.48,0,0,0,2,3,8.52,8.52,0,0,0,2.83,1.87A8.85,8.85,0,0,0,17.27,42.09Z"/><path class="cls-1" d="M45.42,11.42a5.72,5.72,0,0,1-4-1.66A5.88,5.88,0,0,1,40.15,8a5.68,5.68,0,0,1-.44-2.25,5.67,5.67,0,0,1,.44-2.24,5.88,5.88,0,0,1,1.23-1.8,5.68,5.68,0,0,1,4-1.67A5.62,5.62,0,0,1,49.5,1.67a5.42,5.42,0,0,1,1.7,4,5.43,5.43,0,0,1-1.7,4.05A5.61,5.61,0,0,1,45.42,11.42ZM41,49.23V15.91h8.91V49.23Z"/><path class="cls-1" d="M66.37,32.3,54.94,15.91H65.48l6.06,9.25H72l5.71-9.25H88.6L76.91,32.3,88.6,49.23H78.13l-6.25-9.52H71.4l-6.05,9.52H54.81Z"/><path class="cls-1" d="M123.55,41.21a18.54,18.54,0,0,1-6.22,6.59,17.25,17.25,0,0,1-9.55,2.52,18.24,18.24,0,0,1-7-1.33,16.88,16.88,0,0,1-5.61-3.7,17.06,17.06,0,0,1-3.71-5.61,18.6,18.6,0,0,1-1.32-7.11,18.23,18.23,0,0,1,1.29-6.83,17.18,17.18,0,0,1,9.08-9.49,16.77,16.77,0,0,1,7-1.43,18.25,18.25,0,0,1,7.14,1.33,14.54,14.54,0,0,1,5.23,3.67,15.71,15.71,0,0,1,3.2,5.54,21.35,21.35,0,0,1,1.09,6.94v.82a4.08,4.08,0,0,0-.07.74,4.35,4.35,0,0,0-.07.75H98.87a9.43,9.43,0,0,0,1.12,3.5,8.37,8.37,0,0,0,2.11,2.45A8.13,8.13,0,0,0,104.85,42a10.6,10.6,0,0,0,3.07.44A8.68,8.68,0,0,0,113,41a10.18,10.18,0,0,0,3.16-3.5Zm-8.09-12.92a5.61,5.61,0,0,0-.58-2,6.75,6.75,0,0,0-1.49-2,7.76,7.76,0,0,0-2.45-1.57,9,9,0,0,0-3.5-.61,8.13,8.13,0,0,0-5,1.63,8.64,8.64,0,0,0-3.06,4.56Z"/><path class="cls-1" d="M129.81,49.23V.54h8.91V49.23Z"/><path class="cls-1" d="M161.29,50.32a16,16,0,0,1-12.1-5,17.79,17.79,0,0,1-4.76-12.72,18.12,18.12,0,0,1,4.62-12.68,15.32,15.32,0,0,1,11.84-5.07q7.41,0,11.79,4.8t4.39,13.43l-.07.68H150.82a10.86,10.86,0,0,0,3.27,7.89,10.44,10.44,0,0,0,7.48,3q6,0,9.38-6l5.58,2.72a16.58,16.58,0,0,1-6.23,6.6A17.16,17.16,0,0,1,161.29,50.32Zm-10-21.76h19.11a8.36,8.36,0,0,0-2.83-5.75,9.9,9.9,0,0,0-6.83-2.27,9.07,9.07,0,0,0-6.09,2.17A10.36,10.36,0,0,0,151.3,28.56Z"/><path class="cls-1" d="M198,32.3l11.9,16.93H202.5l-8.23-12.31-8.09,12.31h-7.34L190.6,32.3,179.11,15.91h7.07l8.23,11.77,7.82-11.77h7.34Z"/><path class="cls-1" d="M231.54,50.32a14.41,14.41,0,0,1-6.7-1.56,11.8,11.8,0,0,1-4.66-4.15h-.27l.27,4.62V63.92h-6.25v-48h6v4.63h.27a11.65,11.65,0,0,1,4.66-4.15A14.77,14.77,0,0,1,242.69,20a18.2,18.2,0,0,1,4.69,12.58,18,18,0,0,1-4.69,12.58A14.31,14.31,0,0,1,231.54,50.32Zm-1-5.71a9.75,9.75,0,0,0,7.55-3.4,12.27,12.27,0,0,0,3.06-8.64,12.4,12.4,0,0,0-3.06-8.63,10.16,10.16,0,0,0-15.17,0,12.59,12.59,0,0,0-3,8.63,12.73,12.73,0,0,0,3,8.71A9.92,9.92,0,0,0,230.52,44.61Z"/><path class="cls-1" d="M268.05,50.32a16,16,0,0,1-12.1-5,17.75,17.75,0,0,1-4.76-12.72,18.12,18.12,0,0,1,4.62-12.68,15.31,15.31,0,0,1,11.83-5.07q7.42,0,11.8,4.8t4.39,13.43l-.07.68H257.58a10.89,10.89,0,0,0,3.26,7.89,10.47,10.47,0,0,0,7.48,3q6,0,9.39-6l5.57,2.72a16.56,16.56,0,0,1-6.22,6.6A17.16,17.16,0,0,1,268.05,50.32Zm-10-21.76h19.1a8.3,8.3,0,0,0-2.82-5.75,9.92,9.92,0,0,0-6.83-2.27,9.07,9.07,0,0,0-6.09,2.17A10.36,10.36,0,0,0,258.06,28.56Z"/><path class="cls-1" d="M295.8,49.23h-6.26V15.91h6v5.44h.28a9,9,0,0,1,3.91-4.52A10.82,10.82,0,0,1,305.52,15a11.61,11.61,0,0,1,4.62.82l-1.9,6a10.26,10.26,0,0,0-3.67-.48,8.1,8.1,0,0,0-6.16,2.86,9.55,9.55,0,0,0-2.61,6.66Z"/><path class="cls-1" d="M322.32,4.42A4.28,4.28,0,0,1,321,7.55a4.43,4.43,0,0,1-6.25,0,4.27,4.27,0,0,1-1.29-3.13,4.27,4.27,0,0,1,1.29-3.13,4.43,4.43,0,0,1,6.25,0A4.28,4.28,0,0,1,322.32,4.42ZM321,15.91V49.23h-6.25V15.91Z"/><path class="cls-1" d="M343.8,50.32a16,16,0,0,1-12.1-5,17.79,17.79,0,0,1-4.76-12.72,18.12,18.12,0,0,1,4.62-12.68,15.32,15.32,0,0,1,11.84-5.07q7.41,0,11.79,4.8t4.39,13.43l-.07.68H333.33a10.86,10.86,0,0,0,3.27,7.89,10.44,10.44,0,0,0,7.48,3q6,0,9.38-6L359,41.34a16.58,16.58,0,0,1-6.23,6.6A17.16,17.16,0,0,1,343.8,50.32Zm-10-21.76h19.11a8.36,8.36,0,0,0-2.83-5.75,9.9,9.9,0,0,0-6.83-2.27,9.07,9.07,0,0,0-6.09,2.17A10.36,10.36,0,0,0,333.81,28.56Z"/><path class="cls-1" d="M365.29,15.91h6v4.63h.27a11,11,0,0,1,4.38-4.08,12.61,12.61,0,0,1,6.16-1.64q6.12,0,9.42,3.51t3.29,10V49.23h-6.25V28.7q-.21-8.16-8.23-8.16a7.85,7.85,0,0,0-6.26,3,11,11,0,0,0-2.51,7.24V49.23h-6.26Z"/><path class="cls-1" d="M417.38,50.32a16.47,16.47,0,0,1-12.31-5,17.94,17.94,0,0,1-4.83-12.72,17.61,17.61,0,0,1,4.83-12.71,16.44,16.44,0,0,1,12.31-5A15.25,15.25,0,0,1,432,24.41l-5.71,2.38q-2.66-6.25-9.32-6.25A9.65,9.65,0,0,0,409.56,24a12.5,12.5,0,0,0-3.06,8.57,12.49,12.49,0,0,0,3.06,8.57A9.66,9.66,0,0,0,417,44.61a9.8,9.8,0,0,0,9.66-6.26l5.57,2.38a14.94,14.94,0,0,1-5.74,7A16.27,16.27,0,0,1,417.38,50.32Z"/><path class="cls-1" d="M452.26,50.32a16,16,0,0,1-12.1-5,17.75,17.75,0,0,1-4.76-12.72A18.12,18.12,0,0,1,440,19.89a15.3,15.3,0,0,1,11.83-5.07q7.42,0,11.8,4.8T468,33.05l-.07.68H441.79a10.89,10.89,0,0,0,3.26,7.89,10.47,10.47,0,0,0,7.48,3q6,0,9.39-6l5.57,2.72a16.56,16.56,0,0,1-6.22,6.6A17.16,17.16,0,0,1,452.26,50.32Zm-10-21.76h19.1a8.3,8.3,0,0,0-2.82-5.75,9.92,9.92,0,0,0-6.83-2.27,9.07,9.07,0,0,0-6.09,2.17A10.36,10.36,0,0,0,442.27,28.56Z"/><line class="cls-2" x1="15.44" y1="61.38" x2="200.44" y2="61.38"/><line class="cls-3" x1="152.44" y1="61.38" x2="207.29" y2="61.38"/><line class="cls-4" x1="144.44" y1="61.38" x2="191.44" y2="61.38"/><line class="cls-5" x1="226.69" y1="61.38" x2="413.44" y2="61.38"/><line class="cls-6" x1="363.44" y1="61.38" x2="465.64" y2="61.38"/><line class="cls-7" x1="326.74" y1="61.38" x2="402.44" y2="61.38"/></g></g></svg>